<?xml version="1.0" encoding="utf-8"?>
<!-- Generator: Adobe Illustrator 17.1.0, SVG Export Plug-In . SVG Version: 6.00 Build 0)  -->
<!DOCTYPE svg PUBLIC "-//W3C//DTD SVG 1.1//EN" "http://www.w3.org/Graphics/SVG/1.1/DTD/svg11.dtd">
<svg version="1.1" id="Layer_3" xmlns="http://www.w3.org/2000/svg" xmlns:xlink="http://www.w3.org/1999/xlink" x="0px" y="0px"
	 viewBox="0 0 125 55" enable-background="new 0 0 125 55" xml:space="preserve">
<g>
	<path fill="#FFFFFF" d="M68.8,22.1l0,18.4c0,0,0,2.2-1.1,3.7c-1.9,2.5-11.1,8.5-11.1,8.5S46.4,47,44.7,44.6c-0.4-0.6-1.5-1.3-1.5-4
		c0-1.9,0-18.4,0-18.4L68.8,22.1L68.8,22.1z"/>
	<path fill="#2674CA" d="M68.9,32.9l0,7.7c0,0,0,2.2-1.1,3.7c-1.9,2.5-11.2,8.6-11.2,8.6s-10.3-5.8-12-8.2c-0.4-0.6-1.5-1.3-1.5-4
		c0-1.9,0-7.7,0-7.7L68.9,32.9L68.9,32.9z"/>
	<path fill="#2674CA" d="M67.2,28.6c0.3,0.3,0.5,0.6,0.4,1.4l-0.7-0.3L67.2,28.6L67.2,28.6z M44.7,32l0.5-1l5.3-0.9
		c-0.4-0.8,0.1-1.1,0.1-1.1l1.1,0.1l0.2,0.5l0.7-0.3l5,1l0.2-0.6h0.9v-1.1l-0.3,0.1l-0.3-0.3c-0.3-0.1-1.8,0.2-1.8,0.2
		c-0.5-0.2-1.1-1.3-1.1-1.3c0.5-0.4,0.7-1,0.7-1l-0.7-2.3c1.7-0.7,2.7,0.9,2.7,0.9c-1,0.5-0.9,1.1-0.9,1.1l1.3,0.2
		c2.1,1.9,1.7,4.5,1.7,4.5l5.5,1l0.2-0.4h1l0.2,0.2l0.2-0.7l-3.7-0.4l-0.4-3l-0.2,0L63,28.8l-0.5,0.4l-1.3,0.1
		c-0.8-2.5-2.2-3.1-2.2-3.1l-0.3-0.1L58.6,25c0,0,4,1.1,4.8,1.2c0.8,0.1,0.6,0.1,1.8,0.3c4,0.6,3.1,3.7,3.1,3.7l0.2,0.1L68,32.3
		l0.9,0.2V22H43.1v10.2L44.7,32L44.7,32z"/>
	<path fill="#FFFFFF" d="M4.7,16.5H2.2c0,0,0.5-0.1,0.5-0.5c0-0.1,0-10.5,0-10.5L2,4.8h4.9c0,0,3.3,0.1,3.4,3.1
		c0.1,1.8-1.8,3.9-4.7,3.7c-0.9,0-1.4-0.2-1.4-0.2V16C4.2,16,4.3,16.4,4.7,16.5L4.7,16.5z M4.2,5.4v5.3c0,0,0.5,0.2,1.4,0.1
		c2.3-0.1,2.9-1.5,3-2.8c0.2-2.7-2.8-2.6-2.8-2.6H4.2L4.2,5.4z"/>
	<path fill="#FFFFFF" d="M11.1,4.8h6.7l0.8,1.3l-0.1,0c0,0-0.5-0.8-1.8-0.8c-0.4,0-3.4,0-3.4,0v4.1h3.6c0,0,0.4,0,0.6-0.2
		c0.1-0.1-0.6,1.3-0.6,1.3s-0.2-0.4-0.5-0.4c-0.3,0-3.1,0-3.1,0v5.2c0,0,0.6,0.2,1.1,0.2c0,0,3.8,0.3,4.6-1l-0.8,1.7h-6.9
		c0,0,0.5-0.2,0.5-0.8c0-0.4,0-10.2,0-10.2L11.1,4.8L11.1,4.8z"/>
	<path fill="#FFFFFF" d="M31,4.8h2.1l6.9,8.3V5.3c0,0-0.2-0.4-0.4-0.5h1.7c0,0-0.4,0.2-0.4,0.5c0,0.2,0,11.3,0,11.3L32.6,6.5V16
		c0,0,0.3,0.4,0.5,0.5h-1.9c0,0,0.5-0.3,0.5-0.5V5.4C31.6,5.4,31.3,4.9,31,4.8L31,4.8z"/>
	<path fill="#FFFFFF" d="M19.7,4.8h2.1l6.9,8.3V5.3c0,0-0.2-0.4-0.4-0.5h1.7c0,0-0.4,0.2-0.4,0.5c0,0.2,0,11.3,0,11.3L21.2,6.5V16
		c0,0,0.1,0.4,0.4,0.5h-1.7c0,0,0.4-0.3,0.4-0.5V5.4C20.3,5.4,19.9,4.9,19.7,4.8L19.7,4.8z"/>
	<path fill="#FFFFFF" d="M50.6,2.6c0,0-3.3-2.7-6.4,0.2c-1.5,1.4-1.5,4.2,0.4,5.3c2.1,1.2,3,1.8,3.8,2.4c0,0,2.3,0.9,1.2,3.7
		c0,0-0.8,1.5-2.5,1.4c-0.5,0-2.4,0.4-4-3.1v2.3c0,0,1.4,1.4,3,1.7c2.4,0.4,5.5-1.3,5.6-4.2c0-2.1-1.6-3.2-2.7-3.8
		c-0.7-0.5-3.7-2-4-2.7c0,0-1.2-1.8,0.9-3.2c0.9-0.6,3.1-0.8,4.6,2.1V2.6L50.6,2.6z"/>
	<path fill="#FFFFFF" d="M63.6,4.6c0,0,4.2,10.4,4.6,10.9c0.3,0.5,0.8,0.9,1,0.9H66c0,0,0.4-0.3,0.6-0.5c0.1-0.2,0-0.6,0-0.6
		l-1.1-2.5h-4.3L60,15.3c0,0-0.2,0.4,0,0.7c0.1,0.2,0.4,0.4,0.4,0.4h-2.2c0,0,0.5-0.2,0.9-1C59.5,14.6,63.6,4.6,63.6,4.6L63.6,4.6z
		 M61.5,12h3.6l-1.8-4.5L61.5,12L61.5,12z"/>
	<path fill="#FFFFFF" d="M67.2,4.9h8.3L76.2,6c0,0-0.7-0.4-1.6-0.4c-0.1,0-2.4,0-2.4,0v10.2c0,0,0.2,0.5,0.5,0.6h-2.5
		c0.3,0,0.5-0.5,0.5-0.6c0-0.1,0-10.2,0-10.2H68c0,0-0.8,0-1.6,0.5C66.2,6.3,67.3,4.9,67.2,4.9L67.2,4.9z"/>
	<path fill="#FFFFFF" d="M51.8,4.9h8.3L60.8,6c0,0-0.7-0.4-1.6-0.4c-0.1,0-2.4,0-2.4,0v10.2c0,0,0.2,0.5,0.5,0.6h-2.5
		c0.3,0,0.5-0.5,0.5-0.6c0-0.1,0-10.2,0-10.2h-2.7c0,0-0.8,0-1.6,0.5C50.8,6.3,51.8,4.9,51.8,4.9L51.8,4.9z"/>
	<path fill="#FFFFFF" d="M76.6,4.9h6.7l0.8,1.3l-0.1,0c0,0-0.5-0.8-1.8-0.8c-0.4,0-3.4,0-3.4,0v4.1h3.6c0,0,0.4,0,0.6-0.2
		c0.1-0.1-0.6,1.3-0.6,1.3s-0.2-0.4-0.5-0.4c-0.3,0-3.1,0-3.1,0v5.2c0,0,1.1,0.2,1.1,0.2c0,0,3.8,0.3,4.6-1l-0.8,1.7h-6.9
		c0,0,0.5-0.4,0.5-0.8c0-0.4,0-10.2,0-10.2L76.6,4.9L76.6,4.9z"/>
	<path fill="#FFFFFF" d="M45.6,37.9l0-3.7c0,0-0.6,0.2-0.3,0.1c0.2-0.1-0.8,0.5-0.8,0.5s0,0.1,0,0.1h0.3c0,0,0,2.1,0,3
		c0,0.2-0.3,0.4-0.3,0.4l1.4,0C45.7,38.3,45.6,37.9,45.6,37.9L45.6,37.9z"/>
	<path fill="#FFFFFF" d="M59.6,38.4c0,0-1.1,0.2-1.3-0.5c-0.1-0.1,0.2-0.2,0.2-0.2s0.1,0.2,0.7,0.3c0.4,0,0.8-0.4,0.8-0.9
		c0-0.7-0.6-1.1-1.5-0.9l0.3-1.7c0,0,1.4,0,1.4,0c0,0,0.3-0.1,0.3-0.1L60.3,35h-1.2L59,35.6c0,0,0.8,0,1.3,0.4
		C61.2,36.7,60.6,38.3,59.6,38.4L59.6,38.4z"/>
	<path fill="#FFFFFF" d="M50,24.1c0-0.3,0.1-0.9,0.3-1.1c0.1-0.1,0.1-0.1,0.1-0.1c0.2,0,0.6,0.1,0.9,0.8c0,0,1-0.2,2,0
		c0,0,0.3-0.6,0.6-0.8c0,0,0.8,0.2,0.9,1c0,0.2-0.1,0.5-0.3,0.6c0,0-0.2-0.9-0.5-1l-0.4,0.4c0,0,0.2,0.4,0.4,0.7l-0.4,0.2
		c0,0-0.2-0.4-0.9-0.2c-0.2,0.1-1.1,1.5-1.1,1.5s-0.7-0.3-1,0c0,0-0.1,0.3,0.2,0.4c0.2,0.1,0.3,0.3,0.3,0.3s0,0.2-0.5,0.4
		c0,0-0.5-0.7-0.3-1.2l-0.2-0.4l0.8,0l0.1-0.2c0,0-0.6,0.1-0.6-0.1c0,0,0-0.2,0.2-0.3c0.2,0,0.3,0,0.5,0.1l0.2-0.2
		c0,0-0.6-0.5-1.2,0.1c0,0-0.1-0.5,0.7-0.9c0,0-0.2-0.6-0.3-0.6l-0.3,0.7L50,24.1"/>
	<path fill="#FFFFFF" d="M52.5,25.3c0-0.1,0.2-0.4,0.4-0.4c0.1,0,0.3-0.1,0.4,0.2c0.1,0.2-0.1,0.2-0.1,0.2S52.8,25.4,52.5,25.3
		L52.5,25.3z"/>
	<path fill="#FFFFFF" d="M51.5,26.6l0.4-0.1l0.6-0.9c0,0,0.8,0.2,1.1-0.2c0,0,0.3,0,0.3,0.2c0,0,0,0.4-1,0.5c0,0,0.1,0.7-0.3,0.9
		C51.9,27.1,51.5,26.6,51.5,26.6L51.5,26.6z"/>
	<path fill="#FFFFFF" d="M50.8,27.5c0,0,0.7,0.6,1.5,0.1c0,0-0.3-0.3-0.6-0.4c-0.3-0.1-0.4-0.1-0.5,0C51.2,27.1,51,27.3,50.8,27.5
		L50.8,27.5z"/>
	<path fill="#FFFFFF" d="M66.5,38.3c0,0-1.1,0.2-1.3-0.5c-0.1-0.1,0.2-0.2,0.2-0.2s0.1,0.2,0.7,0.3c0.4,0,0.8-0.4,0.8-0.9
		c0-0.7-0.6-1.1-1.5-0.9l0.3-1.7c0,0,1.4,0,1.4,0c0,0,0.3-0.1,0.3-0.1l-0.2,0.7H66l-0.1,0.7c0,0,0.8,0,1.3,0.4
		C68.1,36.7,67.5,38.3,66.5,38.3L66.5,38.3z"/>
	<path fill="#FFFFFF" d="M51.7,34.3c0.2-0.1,1.5-0.2,1.5,0.9c0,0.5-0.5,0.9-0.6,0.9c0,0,0.9,0.3,0.9,1.1c0,0.8-0.8,1.3-1.4,1.3
		c-0.7,0-1.5-0.3-1.5-1.2c0-0.3,0.2-0.7,0.9-1.1c0,0-0.7-0.3-0.7-1C50.9,34.6,51.5,34.4,51.7,34.3L51.7,34.3z M52.6,34.9
		C52.6,34.9,52.6,34.9,52.6,34.9c-0.1,0-0.4-0.3-0.9-0.1c0.1,0-0.1,0.1-0.2,0.2c-0.5,0.7,0.7,1.2,0.7,1.1
		C52.2,36.1,52.9,35.5,52.6,34.9L52.6,34.9z M52.7,37.9c0,0,0.5-0.6-0.1-1.1c-0.1-0.1-0.6-0.3-0.6-0.3c-1,0.7-0.4,1.4-0.3,1.4
		C52.4,38.2,52.4,38,52.7,37.9L52.7,37.9z"/>
	<line fill="none" stroke="#FFFFFF" stroke-width="0.6825" x1="43" y1="19.2" x2="118.3" y2="19.2"/>
</g>
</svg>
